# Blender 3.1.0
# www.blender.org
mtllib cubeU.mtl
o Cube
v 1.000000 1.000000 -1.000000
v 1.000000 1.000000 1.000000
v -1.000000 1.000000 -1.000000
v -1.000000 1.000000 1.000000
v 1.000000 -1.000000 -0.520927
v 1.000000 -0.520927 -1.000000
v 1.000000 -0.963533 -0.704261
v 1.000000 -0.859683 -0.859683
v 1.000000 -0.704261 -0.963533
v 1.000000 -0.520927 1.000000
v 1.000000 -1.000000 0.520927
v 1.000000 -0.704261 0.963533
v 1.000000 -0.859683 0.859683
v 1.000000 -0.963533 0.704261
v -1.000000 -0.520927 -1.000000
v -1.000000 -1.000000 -0.520927
v -1.000000 -0.704261 -0.963533
v -1.000000 -0.859683 -0.859683
v -1.000000 -0.963533 -0.704261
v -1.000000 -1.000000 0.520927
v -1.000000 -0.520927 1.000000
v -1.000000 -0.963533 0.704261
v -1.000000 -0.859683 0.859683
v -1.000000 -0.704261 0.963533
vn -0.0000 1.0000 -0.0000
vn -1.0000 -0.0000 -0.0000
vn -0.0000 -0.0000 1.0000
vn -0.0000 -1.0000 -0.0000
vn 1.0000 -0.0000 -0.0000
vn -0.0000 -0.9808 -0.1951
vn -0.0000 -0.8315 -0.5556
vn -0.0000 -0.5556 -0.8315
vn -0.0000 -0.1951 -0.9808
vn -0.0000 -0.9808 0.1951
vn -0.0000 -0.8315 0.5556
vn -0.0000 -0.5556 0.8315
vn -0.0000 -0.1951 0.9808
vn -0.0000 -0.0000 -1.0000
vt 0.625000 0.500000
vt 0.625000 0.750000
vt 0.875000 0.500000
vt 0.625000 0.250000
vt 0.875000 0.750000
vt 0.625000 0.000000
vt 0.625000 1.000000
vt 0.375000 0.559884
vt 0.434884 0.500000
vt 0.379558 0.536967
vt 0.375000 0.536967
vt 0.392540 0.517540
vt 0.375000 0.500000
vt 0.411967 0.504558
vt 0.411967 0.500000
vt 0.434884 0.750000
vt 0.375000 0.690116
vt 0.411967 0.745442
vt 0.411967 0.750000
vt 0.392540 0.732460
vt 0.375000 0.750000
vt 0.379558 0.713033
vt 0.375000 0.713033
vt 0.434884 0.250000
vt 0.375000 0.190116
vt 0.125000 0.559884
vt 0.411967 0.245442
vt 0.411967 0.250000
vt 0.392540 0.232460
vt 0.125000 0.500000
vt 0.375000 0.250000
vt 0.379558 0.213033
vt 0.125000 0.536967
vt 0.375000 0.059884
vt 0.125000 0.690116
vt 0.434884 0.000000
vt 0.434884 1.000000
vt 0.379558 0.036967
vt 0.125000 0.713033
vt 0.375000 1.000000
vt 0.392540 0.017540
vt 0.125000 0.750000
vt 0.411967 0.004558
vt 0.411967 1.000000
s 0
usemtl Material
f 3/3/1 2/2/1 1/1/1
f 24/43/2 15/24/2 16/25/2
f 2/2/3 21/37/3 10/16/3
f 5/8/4 20/35/4 16/26/4
f 9/14/5 10/16/5 11/17/5
f 16/26/6 7/11/6 5/8/6
f 19/33/7 8/13/7 7/11/7
f 18/31/8 9/15/8 8/13/8
f 17/28/9 6/9/9 9/15/9
f 11/17/10 22/39/10 20/35/10
f 14/23/11 23/42/11 22/39/11
f 13/21/12 24/44/12 23/40/12
f 12/19/13 21/37/13 24/44/13
f 3/4/14 6/9/14 15/24/14
f 3/3/1 4/5/1 2/2/1
f 16/25/2 20/34/2 22/38/2
f 22/38/2 23/41/2 24/43/2
f 24/43/2 21/36/2 4/6/2
f 4/6/2 3/4/2 15/24/2
f 15/24/2 17/27/2 18/29/2
f 18/29/2 19/32/2 16/25/2
f 16/25/2 22/38/2 24/43/2
f 24/43/2 4/6/2 15/24/2
f 15/24/2 18/29/2 16/25/2
f 2/2/3 4/7/3 21/37/3
f 5/8/4 11/17/4 20/35/4
f 11/17/5 5/8/5 7/10/5
f 7/10/5 8/12/5 9/14/5
f 9/14/5 6/9/5 1/1/5
f 1/1/5 2/2/5 10/16/5
f 10/16/5 12/18/5 13/20/5
f 13/20/5 14/22/5 11/17/5
f 11/17/5 7/10/5 9/14/5
f 9/14/5 1/1/5 10/16/5
f 10/16/5 13/20/5 11/17/5
f 16/26/6 19/33/6 7/11/6
f 19/33/7 18/30/7 8/13/7
f 18/31/8 17/28/8 9/15/8
f 17/28/9 15/24/9 6/9/9
f 11/17/10 14/23/10 22/39/10
f 14/23/11 13/21/11 23/42/11
f 13/21/12 12/19/12 24/44/12
f 12/19/13 10/16/13 21/37/13
f 3/4/14 1/1/14 6/9/14
