# Blender 3.1.0
# www.blender.org
mtllib glacon.mtl
o Cube
v 0.939170 0.939170 -1.000000
v 0.939170 1.000000 -0.939170
v 1.000000 0.939170 -0.939170
v 0.939170 -1.000000 -0.939170
v 0.939170 -0.939170 -1.000000
v 1.000000 -0.939170 -0.939170
v 1.000000 0.939170 0.939170
v 0.939170 1.000000 0.939170
v 0.939170 0.939170 1.000000
v 1.000000 -0.939170 0.939170
v 0.939170 -0.939170 1.000000
v 0.939170 -1.000000 0.939170
v -0.939170 0.939170 -1.000000
v -1.000000 0.939170 -0.939170
v -0.939170 1.000000 -0.939170
v -1.000000 -0.939170 -0.939170
v -0.939170 -0.939170 -1.000000
v -0.939170 -1.000000 -0.939170
v -1.000000 0.939170 0.939170
v -0.939170 0.939170 1.000000
v -0.939170 1.000000 0.939170
v -0.939170 -1.000000 0.939170
v -0.939170 -0.939170 1.000000
v -1.000000 -0.939170 0.939170
vn -0.0000 -1.0000 -0.0000
vn -1.0000 -0.0000 -0.0000
vn -0.0000 -0.0000 1.0000
vn -0.0000 1.0000 -0.0000
vn 1.0000 -0.0000 -0.0000
vn 0.5774 0.5774 -0.5774
vn 0.5774 -0.5774 -0.5774
vn 0.5774 0.5774 0.5774
vn 0.5774 -0.5774 0.5774
vn -0.5774 0.5774 -0.5774
vn -0.5774 -0.5774 -0.5774
vn -0.5774 0.5774 0.5774
vn -0.5774 -0.5774 0.5774
vn -0.7071 -0.7071 -0.0000
vn -0.0000 -0.7071 -0.7071
vn 0.7071 -0.0000 -0.7071
vn -0.7071 -0.0000 0.7071
vn 0.7071 -0.0000 0.7071
vn -0.7071 -0.0000 -0.7071
vn -0.0000 0.7071 0.7071
vn 0.7071 0.7071 -0.0000
vn -0.0000 -0.7071 0.7071
vn -0.7071 0.7071 -0.0000
vn -0.0000 0.7071 -0.7071
vn 0.7071 -0.7071 -0.0000
vn -0.0000 -0.0000 -1.0000
vt 0.617396 0.492396
vt 0.632604 0.507604
vt 0.625000 0.492396
vt 0.617396 0.500000
vt 0.617396 0.507604
vt 0.367396 0.507604
vt 0.367396 0.500000
vt 0.382604 0.492396
vt 0.375000 0.507604
vt 0.382604 0.507604
vt 0.617396 0.742396
vt 0.625000 0.742396
vt 0.625000 0.757604
vt 0.632604 0.742396
vt 0.617396 0.750000
vt 0.617396 0.757604
vt 0.382604 0.750000
vt 0.382604 0.742396
vt 0.375000 0.757604
vt 0.382604 0.757604
vt 0.367396 0.750000
vt 0.375000 0.757604
vt 0.367396 0.742396
vt 0.617396 0.250000
vt 0.617396 0.257604
vt 0.617396 0.250000
vt 0.617396 0.242396
vt 0.625000 0.257604
vt 0.867396 0.507604
vt 0.625000 0.242396
vt 0.125000 0.507604
vt 0.382604 0.242396
vt 0.382604 0.250000
vt 0.132604 0.500000
vt 0.382604 0.257604
vt 0.375000 0.242396
vt 0.132604 0.507604
vt 0.617396 0.007604
vt 0.617396 0.000000
vt 0.617396 0.992396
vt 0.625000 0.007604
vt 0.867396 0.742396
vt 0.625000 0.992396
vt 0.132604 0.742396
vt 0.382604 0.000000
vt 0.382604 0.992396
vt 0.132604 0.750000
vt 0.125000 0.742396
vt 0.382604 0.007604
s 0
usemtl Material
f 4/6/1 22/44/1 18/37/1
f 19/38/2 16/32/2 24/49/2
f 9/16/3 23/46/3 11/20/3
f 15/29/4 8/14/4 2/2/4
f 3/5/5 10/18/5 6/10/5
f 1/1/6 2/3/6 3/4/6
f 4/6/7 5/7/7 6/9/7
f 7/11/8 8/12/8 9/15/8
f 10/17/9 11/19/9 12/22/9
f 13/24/10 14/26/10 15/30/10
f 16/32/11 17/33/11 18/36/11
f 19/38/12 20/39/12 21/41/12
f 22/44/13 23/47/13 24/48/13
f 22/44/14 16/31/14 18/37/14
f 18/37/15 5/7/15 4/6/15
f 6/10/16 1/1/16 3/5/16
f 20/39/17 24/49/17 23/45/17
f 11/20/18 7/11/18 9/16/18
f 17/35/19 14/27/19 13/25/19
f 21/43/20 9/16/20 8/13/20
f 8/14/21 3/5/21 2/2/21
f 12/23/22 23/47/22 22/44/22
f 15/30/23 19/38/23 21/41/23
f 2/3/24 13/25/24 15/28/24
f 4/6/25 10/18/25 12/23/25
f 13/25/26 5/8/26 17/35/26
f 4/6/1 12/23/1 22/44/1
f 19/38/2 14/27/2 16/32/2
f 9/16/3 20/40/3 23/46/3
f 15/29/4 21/42/4 8/14/4
f 3/5/5 7/11/5 10/18/5
f 22/44/14 24/48/14 16/31/14
f 18/37/15 17/34/15 5/7/15
f 6/10/16 5/8/16 1/1/16
f 20/39/17 19/38/17 24/49/17
f 11/20/18 10/18/18 7/11/18
f 17/35/19 16/32/19 14/27/19
f 21/43/20 20/40/20 9/16/20
f 8/14/21 7/11/21 3/5/21
f 12/23/22 11/21/22 23/47/22
f 15/30/23 14/27/23 19/38/23
f 2/3/24 1/1/24 13/25/24
f 4/6/25 6/10/25 10/18/25
f 13/25/26 1/1/26 5/8/26
